M48
INCH,TZ
T1C0.0079
T2C0.0394
%
G90
G05
T1
X19528Y-20079
X19528Y-25984
X19528Y-31890
X19528Y-37795
X19528Y-43701
X19528Y-49606
X19528Y-55512
X19528Y-61417
X19823Y-21654
X19823Y-27559
X19823Y-33465
X19823Y-39370
X19823Y-45276
X19823Y-51181
X19823Y-57087
X19823Y-62992
X19843Y-20079
X19843Y-25984
X19843Y-31890
X19843Y-37795
X19843Y-43701
X19843Y-49606
X19843Y-55512
X19843Y-61417
X25433Y-20079
X25433Y-25984
X25433Y-31890
X25433Y-37795
X25433Y-43701
X25433Y-49606
X25433Y-55512
X25433Y-61417
X25728Y-21654
X25728Y-27559
X25728Y-33465
X25728Y-39370
X25728Y-45276
X25728Y-51181
X25728Y-57087
X25728Y-62992
X25748Y-20079
X25748Y-25984
X25748Y-31890
X25748Y-37795
X25748Y-43701
X25748Y-49606
X25748Y-55512
X25748Y-61417
X31339Y-20079
X31339Y-25984
X31339Y-31890
X31339Y-37795
X31339Y-43701
X31339Y-49606
X31339Y-55512
X31339Y-61417
X31634Y-21654
X31634Y-27559
X31634Y-33465
X31634Y-39370
X31634Y-45276
X31634Y-51181
X31634Y-57087
X31634Y-62992
X31654Y-20079
X31654Y-25984
X31654Y-31890
X31654Y-37795
X31654Y-43701
X31654Y-49606
X31654Y-55512
X31654Y-61417
X37244Y-20079
X37244Y-25984
X37244Y-31890
X37244Y-37795
X37244Y-43701
X37244Y-49606
X37244Y-55512
X37244Y-61417
X37539Y-21654
X37539Y-27559
X37539Y-33465
X37539Y-39370
X37539Y-45276
X37539Y-51181
X37539Y-57087
X37539Y-62992
X37559Y-20079
X37559Y-25984
X37559Y-31890
X37559Y-37795
X37559Y-43701
X37559Y-49606
X37559Y-55512
X37559Y-61417
X43150Y-20079
X43150Y-25984
X43150Y-31890
X43150Y-37795
X43150Y-43701
X43150Y-49606
X43150Y-55512
X43150Y-61417
X43445Y-21654
X43445Y-27559
X43445Y-33465
X43445Y-39370
X43445Y-45276
X43445Y-51181
X43445Y-57087
X43445Y-62992
X43465Y-20079
X43465Y-25984
X43465Y-31890
X43465Y-37795
X43465Y-43701
X43465Y-49606
X43465Y-55512
X43465Y-61417
X49055Y-20079
X49055Y-25984
X49055Y-31890
X49055Y-37795
X49055Y-43701
X49055Y-49606
X49055Y-55512
X49055Y-61417
X49350Y-21654
X49350Y-27559
X49350Y-33465
X49350Y-39370
X49350Y-45276
X49350Y-51181
X49350Y-57087
X49350Y-62992
X49370Y-20079
X49370Y-25984
X49370Y-31890
X49370Y-37795
X49370Y-43701
X49370Y-49606
X49370Y-55512
X49370Y-61417
X54961Y-20079
X54961Y-25984
X54961Y-31890
X54961Y-37795
X54961Y-43701
X54961Y-49606
X54961Y-55512
X54961Y-61417
X55256Y-21654
X55256Y-27559
X55256Y-33465
X55256Y-39370
X55256Y-45276
X55256Y-51181
X55256Y-57087
X55256Y-62992
X55276Y-20079
X55276Y-25984
X55276Y-31890
X55276Y-37795
X55276Y-43701
X55276Y-49606
X55276Y-55512
X55276Y-61417
X60866Y-20079
X60866Y-25984
X60866Y-31890
X60866Y-37795
X60866Y-43701
X60866Y-49606
X60866Y-55512
X60866Y-61417
X61161Y-21654
X61161Y-27559
X61161Y-33465
X61161Y-39370
X61161Y-45276
X61161Y-51181
X61161Y-57087
X61161Y-62992
X61181Y-20079
X61181Y-25984
X61181Y-31890
X61181Y-37795
X61181Y-43701
X61181Y-49606
X61181Y-55512
X61181Y-61417
T2
X36854Y-13780
X37854Y-13780
X38854Y-13780
X39854Y-13780
X40854Y-13780
X41854Y-13780
X42854Y-13780
X43854Y-13780
X66929Y-36854
X66929Y-37854
X66929Y-38854
X66929Y-39854
X66929Y-40854
X66929Y-41854
X66929Y-42854
X66929Y-43854
T0
M30
