G04 #@! TF.GenerationSoftware,KiCad,Pcbnew,(5.1.5)-3*
G04 #@! TF.CreationDate,2021-01-07T19:15:07+01:00*
G04 #@! TF.ProjectId,haptic display 8x8 aisler,68617074-6963-4206-9469-73706c617920,rev?*
G04 #@! TF.SameCoordinates,Original*
G04 #@! TF.FileFunction,Soldermask,Top*
G04 #@! TF.FilePolarity,Negative*
%FSLAX46Y46*%
G04 Gerber Fmt 4.6, Leading zero omitted, Abs format (unit mm)*
G04 Created by KiCad (PCBNEW (5.1.5)-3) date 2021-01-07 19:15:07*
%MOMM*%
%LPD*%
G04 APERTURE LIST*
%ADD10C,0.100000*%
G04 APERTURE END LIST*
D10*
G36*
X170193197Y-110561777D02*
G01*
X170247937Y-110572665D01*
X170325281Y-110604702D01*
X170402626Y-110636740D01*
X170541844Y-110729762D01*
X170660238Y-110848156D01*
X170753260Y-110987374D01*
X170817335Y-111142064D01*
X170850000Y-111306282D01*
X170850000Y-111473718D01*
X170817335Y-111637936D01*
X170753260Y-111792626D01*
X170660238Y-111931844D01*
X170541844Y-112050238D01*
X170402626Y-112143260D01*
X170325281Y-112175297D01*
X170247937Y-112207335D01*
X170193197Y-112218223D01*
X170083718Y-112240000D01*
X169916282Y-112240000D01*
X169806803Y-112218223D01*
X169752063Y-112207335D01*
X169674719Y-112175297D01*
X169597374Y-112143260D01*
X169458156Y-112050238D01*
X169339762Y-111931844D01*
X169246740Y-111792626D01*
X169182665Y-111637936D01*
X169150000Y-111473718D01*
X169150000Y-111306282D01*
X169182665Y-111142064D01*
X169246740Y-110987374D01*
X169339762Y-110848156D01*
X169458156Y-110729762D01*
X169597374Y-110636740D01*
X169674719Y-110604702D01*
X169752063Y-110572665D01*
X169806803Y-110561777D01*
X169916282Y-110540000D01*
X170083718Y-110540000D01*
X170193197Y-110561777D01*
G37*
G36*
X170193197Y-108021777D02*
G01*
X170247937Y-108032665D01*
X170325281Y-108064703D01*
X170402626Y-108096740D01*
X170541844Y-108189762D01*
X170660238Y-108308156D01*
X170753260Y-108447374D01*
X170817335Y-108602064D01*
X170850000Y-108766282D01*
X170850000Y-108933718D01*
X170817335Y-109097936D01*
X170753260Y-109252626D01*
X170660238Y-109391844D01*
X170541844Y-109510238D01*
X170402626Y-109603260D01*
X170325281Y-109635298D01*
X170247937Y-109667335D01*
X170193197Y-109678223D01*
X170083718Y-109700000D01*
X169916282Y-109700000D01*
X169806803Y-109678223D01*
X169752063Y-109667335D01*
X169674719Y-109635298D01*
X169597374Y-109603260D01*
X169458156Y-109510238D01*
X169339762Y-109391844D01*
X169246740Y-109252626D01*
X169182665Y-109097936D01*
X169150000Y-108933718D01*
X169150000Y-108766282D01*
X169182665Y-108602064D01*
X169246740Y-108447374D01*
X169339762Y-108308156D01*
X169458156Y-108189762D01*
X169597374Y-108096740D01*
X169674719Y-108064702D01*
X169752063Y-108032665D01*
X169806803Y-108021777D01*
X169916282Y-108000000D01*
X170083718Y-108000000D01*
X170193197Y-108021777D01*
G37*
G36*
X170193197Y-105481777D02*
G01*
X170247937Y-105492665D01*
X170325281Y-105524703D01*
X170402626Y-105556740D01*
X170541844Y-105649762D01*
X170660238Y-105768156D01*
X170753260Y-105907374D01*
X170817335Y-106062064D01*
X170850000Y-106226282D01*
X170850000Y-106393718D01*
X170817335Y-106557936D01*
X170753260Y-106712626D01*
X170660238Y-106851844D01*
X170541844Y-106970238D01*
X170402626Y-107063260D01*
X170325281Y-107095297D01*
X170247937Y-107127335D01*
X170193197Y-107138223D01*
X170083718Y-107160000D01*
X169916282Y-107160000D01*
X169806803Y-107138223D01*
X169752063Y-107127335D01*
X169674719Y-107095297D01*
X169597374Y-107063260D01*
X169458156Y-106970238D01*
X169339762Y-106851844D01*
X169246740Y-106712626D01*
X169182665Y-106557936D01*
X169150000Y-106393718D01*
X169150000Y-106226282D01*
X169182665Y-106062064D01*
X169246740Y-105907374D01*
X169339762Y-105768156D01*
X169458156Y-105649762D01*
X169597374Y-105556740D01*
X169674719Y-105524703D01*
X169752063Y-105492665D01*
X169806803Y-105481777D01*
X169916282Y-105460000D01*
X170083718Y-105460000D01*
X170193197Y-105481777D01*
G37*
G36*
X170193197Y-102941777D02*
G01*
X170247937Y-102952665D01*
X170325281Y-102984703D01*
X170402626Y-103016740D01*
X170541844Y-103109762D01*
X170660238Y-103228156D01*
X170753260Y-103367374D01*
X170817335Y-103522064D01*
X170850000Y-103686282D01*
X170850000Y-103853718D01*
X170817335Y-104017936D01*
X170753260Y-104172626D01*
X170660238Y-104311844D01*
X170541844Y-104430238D01*
X170402626Y-104523260D01*
X170325281Y-104555297D01*
X170247937Y-104587335D01*
X170193197Y-104598223D01*
X170083718Y-104620000D01*
X169916282Y-104620000D01*
X169806803Y-104598223D01*
X169752063Y-104587335D01*
X169674719Y-104555298D01*
X169597374Y-104523260D01*
X169458156Y-104430238D01*
X169339762Y-104311844D01*
X169246740Y-104172626D01*
X169182665Y-104017936D01*
X169150000Y-103853718D01*
X169150000Y-103686282D01*
X169182665Y-103522064D01*
X169246740Y-103367374D01*
X169339762Y-103228156D01*
X169458156Y-103109762D01*
X169597374Y-103016740D01*
X169674719Y-102984702D01*
X169752063Y-102952665D01*
X169806803Y-102941777D01*
X169916282Y-102920000D01*
X170083718Y-102920000D01*
X170193197Y-102941777D01*
G37*
G36*
X170193197Y-100401777D02*
G01*
X170247937Y-100412665D01*
X170325281Y-100444703D01*
X170402626Y-100476740D01*
X170541844Y-100569762D01*
X170660238Y-100688156D01*
X170753260Y-100827374D01*
X170817335Y-100982064D01*
X170850000Y-101146282D01*
X170850000Y-101313718D01*
X170817335Y-101477936D01*
X170753260Y-101632626D01*
X170660238Y-101771844D01*
X170541844Y-101890238D01*
X170402626Y-101983260D01*
X170325281Y-102015298D01*
X170247937Y-102047335D01*
X170193197Y-102058223D01*
X170083718Y-102080000D01*
X169916282Y-102080000D01*
X169806803Y-102058223D01*
X169752063Y-102047335D01*
X169674719Y-102015298D01*
X169597374Y-101983260D01*
X169458156Y-101890238D01*
X169339762Y-101771844D01*
X169246740Y-101632626D01*
X169182665Y-101477936D01*
X169150000Y-101313718D01*
X169150000Y-101146282D01*
X169182665Y-100982064D01*
X169246740Y-100827374D01*
X169339762Y-100688156D01*
X169458156Y-100569762D01*
X169597374Y-100476740D01*
X169674719Y-100444702D01*
X169752063Y-100412665D01*
X169806803Y-100401777D01*
X169916282Y-100380000D01*
X170083718Y-100380000D01*
X170193197Y-100401777D01*
G37*
G36*
X170193197Y-97861777D02*
G01*
X170247937Y-97872665D01*
X170325281Y-97904703D01*
X170402626Y-97936740D01*
X170541844Y-98029762D01*
X170660238Y-98148156D01*
X170753260Y-98287374D01*
X170817335Y-98442064D01*
X170850000Y-98606282D01*
X170850000Y-98773718D01*
X170817335Y-98937936D01*
X170753260Y-99092626D01*
X170660238Y-99231844D01*
X170541844Y-99350238D01*
X170402626Y-99443260D01*
X170325281Y-99475297D01*
X170247937Y-99507335D01*
X170193197Y-99518223D01*
X170083718Y-99540000D01*
X169916282Y-99540000D01*
X169806803Y-99518223D01*
X169752063Y-99507335D01*
X169674719Y-99475298D01*
X169597374Y-99443260D01*
X169458156Y-99350238D01*
X169339762Y-99231844D01*
X169246740Y-99092626D01*
X169182665Y-98937936D01*
X169150000Y-98773718D01*
X169150000Y-98606282D01*
X169182665Y-98442064D01*
X169246740Y-98287374D01*
X169339762Y-98148156D01*
X169458156Y-98029762D01*
X169597374Y-97936740D01*
X169674719Y-97904703D01*
X169752063Y-97872665D01*
X169806803Y-97861777D01*
X169916282Y-97840000D01*
X170083718Y-97840000D01*
X170193197Y-97861777D01*
G37*
G36*
X170193197Y-95321777D02*
G01*
X170247937Y-95332665D01*
X170325281Y-95364703D01*
X170402626Y-95396740D01*
X170541844Y-95489762D01*
X170660238Y-95608156D01*
X170753260Y-95747374D01*
X170817335Y-95902064D01*
X170850000Y-96066282D01*
X170850000Y-96233718D01*
X170817335Y-96397936D01*
X170753260Y-96552626D01*
X170660238Y-96691844D01*
X170541844Y-96810238D01*
X170402626Y-96903260D01*
X170325281Y-96935297D01*
X170247937Y-96967335D01*
X170193197Y-96978223D01*
X170083718Y-97000000D01*
X169916282Y-97000000D01*
X169806803Y-96978223D01*
X169752063Y-96967335D01*
X169674719Y-96935298D01*
X169597374Y-96903260D01*
X169458156Y-96810238D01*
X169339762Y-96691844D01*
X169246740Y-96552626D01*
X169182665Y-96397936D01*
X169150000Y-96233718D01*
X169150000Y-96066282D01*
X169182665Y-95902064D01*
X169246740Y-95747374D01*
X169339762Y-95608156D01*
X169458156Y-95489762D01*
X169597374Y-95396740D01*
X169674719Y-95364702D01*
X169752063Y-95332665D01*
X169806803Y-95321777D01*
X169916282Y-95300000D01*
X170083718Y-95300000D01*
X170193197Y-95321777D01*
G37*
G36*
X170850000Y-94460000D02*
G01*
X169150000Y-94460000D01*
X169150000Y-92760000D01*
X170850000Y-92760000D01*
X170850000Y-94460000D01*
G37*
G36*
X94460000Y-35850000D02*
G01*
X92760000Y-35850000D01*
X92760000Y-34150000D01*
X94460000Y-34150000D01*
X94460000Y-35850000D01*
G37*
G36*
X101423197Y-34171777D02*
G01*
X101477937Y-34182665D01*
X101555281Y-34214703D01*
X101632626Y-34246740D01*
X101771844Y-34339762D01*
X101890238Y-34458156D01*
X101983260Y-34597374D01*
X102047335Y-34752064D01*
X102080000Y-34916282D01*
X102080000Y-35083718D01*
X102047335Y-35247936D01*
X101983260Y-35402626D01*
X101890238Y-35541844D01*
X101771844Y-35660238D01*
X101632626Y-35753260D01*
X101555281Y-35785297D01*
X101477937Y-35817335D01*
X101423197Y-35828223D01*
X101313718Y-35850000D01*
X101146282Y-35850000D01*
X101036803Y-35828223D01*
X100982063Y-35817335D01*
X100904719Y-35785298D01*
X100827374Y-35753260D01*
X100688156Y-35660238D01*
X100569762Y-35541844D01*
X100476740Y-35402626D01*
X100412665Y-35247936D01*
X100380000Y-35083718D01*
X100380000Y-34916282D01*
X100412665Y-34752064D01*
X100476740Y-34597374D01*
X100569762Y-34458156D01*
X100688156Y-34339762D01*
X100827374Y-34246740D01*
X100904719Y-34214703D01*
X100982063Y-34182665D01*
X101036803Y-34171777D01*
X101146282Y-34150000D01*
X101313718Y-34150000D01*
X101423197Y-34171777D01*
G37*
G36*
X96343197Y-34171777D02*
G01*
X96397937Y-34182665D01*
X96475281Y-34214703D01*
X96552626Y-34246740D01*
X96691844Y-34339762D01*
X96810238Y-34458156D01*
X96903260Y-34597374D01*
X96967335Y-34752064D01*
X97000000Y-34916282D01*
X97000000Y-35083718D01*
X96967335Y-35247936D01*
X96903260Y-35402626D01*
X96810238Y-35541844D01*
X96691844Y-35660238D01*
X96552626Y-35753260D01*
X96475281Y-35785297D01*
X96397937Y-35817335D01*
X96343197Y-35828223D01*
X96233718Y-35850000D01*
X96066282Y-35850000D01*
X95956803Y-35828223D01*
X95902063Y-35817335D01*
X95824719Y-35785298D01*
X95747374Y-35753260D01*
X95608156Y-35660238D01*
X95489762Y-35541844D01*
X95396740Y-35402626D01*
X95332665Y-35247936D01*
X95300000Y-35083718D01*
X95300000Y-34916282D01*
X95332665Y-34752064D01*
X95396740Y-34597374D01*
X95489762Y-34458156D01*
X95608156Y-34339762D01*
X95747374Y-34246740D01*
X95824719Y-34214703D01*
X95902063Y-34182665D01*
X95956803Y-34171777D01*
X96066282Y-34150000D01*
X96233718Y-34150000D01*
X96343197Y-34171777D01*
G37*
G36*
X98883197Y-34171777D02*
G01*
X98937937Y-34182665D01*
X99015281Y-34214703D01*
X99092626Y-34246740D01*
X99231844Y-34339762D01*
X99350238Y-34458156D01*
X99443260Y-34597374D01*
X99507335Y-34752064D01*
X99540000Y-34916282D01*
X99540000Y-35083718D01*
X99507335Y-35247936D01*
X99443260Y-35402626D01*
X99350238Y-35541844D01*
X99231844Y-35660238D01*
X99092626Y-35753260D01*
X99015281Y-35785297D01*
X98937937Y-35817335D01*
X98883197Y-35828223D01*
X98773718Y-35850000D01*
X98606282Y-35850000D01*
X98496803Y-35828223D01*
X98442063Y-35817335D01*
X98364719Y-35785298D01*
X98287374Y-35753260D01*
X98148156Y-35660238D01*
X98029762Y-35541844D01*
X97936740Y-35402626D01*
X97872665Y-35247936D01*
X97840000Y-35083718D01*
X97840000Y-34916282D01*
X97872665Y-34752064D01*
X97936740Y-34597374D01*
X98029762Y-34458156D01*
X98148156Y-34339762D01*
X98287374Y-34246740D01*
X98364719Y-34214703D01*
X98442063Y-34182665D01*
X98496803Y-34171777D01*
X98606282Y-34150000D01*
X98773718Y-34150000D01*
X98883197Y-34171777D01*
G37*
G36*
X103963197Y-34171777D02*
G01*
X104017937Y-34182665D01*
X104095281Y-34214703D01*
X104172626Y-34246740D01*
X104311844Y-34339762D01*
X104430238Y-34458156D01*
X104523260Y-34597374D01*
X104587335Y-34752064D01*
X104620000Y-34916282D01*
X104620000Y-35083718D01*
X104587335Y-35247936D01*
X104523260Y-35402626D01*
X104430238Y-35541844D01*
X104311844Y-35660238D01*
X104172626Y-35753260D01*
X104095281Y-35785297D01*
X104017937Y-35817335D01*
X103963197Y-35828223D01*
X103853718Y-35850000D01*
X103686282Y-35850000D01*
X103576803Y-35828223D01*
X103522063Y-35817335D01*
X103444719Y-35785298D01*
X103367374Y-35753260D01*
X103228156Y-35660238D01*
X103109762Y-35541844D01*
X103016740Y-35402626D01*
X102952665Y-35247936D01*
X102920000Y-35083718D01*
X102920000Y-34916282D01*
X102952665Y-34752064D01*
X103016740Y-34597374D01*
X103109762Y-34458156D01*
X103228156Y-34339762D01*
X103367374Y-34246740D01*
X103444719Y-34214703D01*
X103522063Y-34182665D01*
X103576803Y-34171777D01*
X103686282Y-34150000D01*
X103853718Y-34150000D01*
X103963197Y-34171777D01*
G37*
G36*
X106503197Y-34171777D02*
G01*
X106557937Y-34182665D01*
X106635281Y-34214703D01*
X106712626Y-34246740D01*
X106851844Y-34339762D01*
X106970238Y-34458156D01*
X107063260Y-34597374D01*
X107127335Y-34752064D01*
X107160000Y-34916282D01*
X107160000Y-35083718D01*
X107127335Y-35247936D01*
X107063260Y-35402626D01*
X106970238Y-35541844D01*
X106851844Y-35660238D01*
X106712626Y-35753260D01*
X106635281Y-35785297D01*
X106557937Y-35817335D01*
X106503197Y-35828223D01*
X106393718Y-35850000D01*
X106226282Y-35850000D01*
X106116803Y-35828223D01*
X106062063Y-35817335D01*
X105984719Y-35785298D01*
X105907374Y-35753260D01*
X105768156Y-35660238D01*
X105649762Y-35541844D01*
X105556740Y-35402626D01*
X105492665Y-35247936D01*
X105460000Y-35083718D01*
X105460000Y-34916282D01*
X105492665Y-34752064D01*
X105556740Y-34597374D01*
X105649762Y-34458156D01*
X105768156Y-34339762D01*
X105907374Y-34246740D01*
X105984719Y-34214703D01*
X106062063Y-34182665D01*
X106116803Y-34171777D01*
X106226282Y-34150000D01*
X106393718Y-34150000D01*
X106503197Y-34171777D01*
G37*
G36*
X109043197Y-34171777D02*
G01*
X109097937Y-34182665D01*
X109175281Y-34214703D01*
X109252626Y-34246740D01*
X109391844Y-34339762D01*
X109510238Y-34458156D01*
X109603260Y-34597374D01*
X109667335Y-34752064D01*
X109700000Y-34916282D01*
X109700000Y-35083718D01*
X109667335Y-35247936D01*
X109603260Y-35402626D01*
X109510238Y-35541844D01*
X109391844Y-35660238D01*
X109252626Y-35753260D01*
X109175281Y-35785297D01*
X109097937Y-35817335D01*
X109043197Y-35828223D01*
X108933718Y-35850000D01*
X108766282Y-35850000D01*
X108656803Y-35828223D01*
X108602063Y-35817335D01*
X108524719Y-35785298D01*
X108447374Y-35753260D01*
X108308156Y-35660238D01*
X108189762Y-35541844D01*
X108096740Y-35402626D01*
X108032665Y-35247936D01*
X108000000Y-35083718D01*
X108000000Y-34916282D01*
X108032665Y-34752064D01*
X108096740Y-34597374D01*
X108189762Y-34458156D01*
X108308156Y-34339762D01*
X108447374Y-34246740D01*
X108524719Y-34214703D01*
X108602063Y-34182665D01*
X108656803Y-34171777D01*
X108766282Y-34150000D01*
X108933718Y-34150000D01*
X109043197Y-34171777D01*
G37*
G36*
X111583197Y-34171777D02*
G01*
X111637937Y-34182665D01*
X111715281Y-34214703D01*
X111792626Y-34246740D01*
X111931844Y-34339762D01*
X112050238Y-34458156D01*
X112143260Y-34597374D01*
X112207335Y-34752064D01*
X112240000Y-34916282D01*
X112240000Y-35083718D01*
X112207335Y-35247936D01*
X112143260Y-35402626D01*
X112050238Y-35541844D01*
X111931844Y-35660238D01*
X111792626Y-35753260D01*
X111715281Y-35785297D01*
X111637937Y-35817335D01*
X111583197Y-35828223D01*
X111473718Y-35850000D01*
X111306282Y-35850000D01*
X111196803Y-35828223D01*
X111142063Y-35817335D01*
X111064719Y-35785298D01*
X110987374Y-35753260D01*
X110848156Y-35660238D01*
X110729762Y-35541844D01*
X110636740Y-35402626D01*
X110572665Y-35247936D01*
X110540000Y-35083718D01*
X110540000Y-34916282D01*
X110572665Y-34752064D01*
X110636740Y-34597374D01*
X110729762Y-34458156D01*
X110848156Y-34339762D01*
X110987374Y-34246740D01*
X111064719Y-34214703D01*
X111142063Y-34182665D01*
X111196803Y-34171777D01*
X111306282Y-34150000D01*
X111473718Y-34150000D01*
X111583197Y-34171777D01*
G37*
M02*
