G04 #@! TF.GenerationSoftware,KiCad,Pcbnew,(5.1.5)-3*
G04 #@! TF.CreationDate,2021-01-07T19:15:06+01:00*
G04 #@! TF.ProjectId,haptic display 8x8 aisler,68617074-6963-4206-9469-73706c617920,rev?*
G04 #@! TF.SameCoordinates,Original*
G04 #@! TF.FileFunction,Paste,Bot*
G04 #@! TF.FilePolarity,Positive*
%FSLAX46Y46*%
G04 Gerber Fmt 4.6, Leading zero omitted, Abs format (unit mm)*
G04 Created by KiCad (PCBNEW (5.1.5)-3) date 2021-01-07 19:15:06*
%MOMM*%
%LPD*%
G04 APERTURE LIST*
%ADD10R,1.800000X2.500000*%
G04 APERTURE END LIST*
D10*
X132500000Y-156750000D03*
X132500000Y-160750000D03*
X132500000Y-141750000D03*
X132500000Y-145750000D03*
X132500000Y-126750000D03*
X132500000Y-130750000D03*
X132500000Y-111750000D03*
X132500000Y-115750000D03*
X132500000Y-96750000D03*
X132500000Y-100750000D03*
X132500000Y-81750000D03*
X132500000Y-85750000D03*
X132500000Y-66750000D03*
X132500000Y-70750000D03*
X72500000Y-149250000D03*
X72500000Y-153250000D03*
X72500000Y-134250000D03*
X72500000Y-138250000D03*
X72500000Y-119250000D03*
X72500000Y-123250000D03*
X72500000Y-104250000D03*
X72500000Y-108250000D03*
X72500000Y-89250000D03*
X72500000Y-93250000D03*
X72500000Y-74250000D03*
X72500000Y-78250000D03*
X72500000Y-59250000D03*
X72500000Y-63250000D03*
X87500000Y-149250000D03*
X87500000Y-153250000D03*
X87500000Y-134250000D03*
X87500000Y-138250000D03*
X87500000Y-119250000D03*
X87500000Y-123250000D03*
X87500000Y-104250000D03*
X87500000Y-108250000D03*
X87500000Y-89250000D03*
X87500000Y-93250000D03*
X87500000Y-74250000D03*
X87500000Y-78250000D03*
X87500000Y-59250000D03*
X87500000Y-63250000D03*
X162500000Y-149250000D03*
X162500000Y-153250000D03*
X162500000Y-134250000D03*
X162500000Y-138250000D03*
X162500000Y-119250000D03*
X162500000Y-123250000D03*
X162500000Y-104250000D03*
X162500000Y-108250000D03*
X162500000Y-89250000D03*
X162500000Y-93250000D03*
X162500000Y-74250000D03*
X162500000Y-78250000D03*
X162500000Y-59250000D03*
X162500000Y-63250000D03*
X147500000Y-149250000D03*
X147500000Y-153250000D03*
X147500000Y-134250000D03*
X147500000Y-138250000D03*
X147500000Y-119250000D03*
X147500000Y-123250000D03*
X147500000Y-104250000D03*
X147500000Y-108250000D03*
X147500000Y-89250000D03*
X147500000Y-93250000D03*
X147500000Y-74250000D03*
X147500000Y-78250000D03*
X147500000Y-59250000D03*
X147500000Y-63250000D03*
X147500000Y-156750000D03*
X147500000Y-160750000D03*
X147500000Y-141750000D03*
X147500000Y-145750000D03*
X147500000Y-126750000D03*
X147500000Y-130750000D03*
X147500000Y-111750000D03*
X147500000Y-115750000D03*
X147500000Y-96750000D03*
X147500000Y-100750000D03*
X147500000Y-81750000D03*
X147500000Y-85750000D03*
X147500000Y-66750000D03*
X147500000Y-70750000D03*
X102500000Y-156750000D03*
X102500000Y-160750000D03*
X102500000Y-141750000D03*
X102500000Y-145750000D03*
X102500000Y-126750000D03*
X102500000Y-130750000D03*
X102500000Y-111750000D03*
X102500000Y-115750000D03*
X102500000Y-96750000D03*
X102500000Y-100750000D03*
X102500000Y-81750000D03*
X102500000Y-85750000D03*
X102500000Y-66750000D03*
X102500000Y-70750000D03*
X102500000Y-149250000D03*
X102500000Y-153250000D03*
X102500000Y-134250000D03*
X102500000Y-138250000D03*
X102500000Y-119250000D03*
X102500000Y-123250000D03*
X102500000Y-104250000D03*
X102500000Y-108250000D03*
X102500000Y-89250000D03*
X102500000Y-93250000D03*
X102500000Y-74250000D03*
X102500000Y-78250000D03*
X102500000Y-59250000D03*
X102500000Y-63250000D03*
X117500000Y-149250000D03*
X117500000Y-153250000D03*
X117500000Y-134250000D03*
X117500000Y-138250000D03*
X117500000Y-119250000D03*
X117500000Y-123250000D03*
X117500000Y-104250000D03*
X117500000Y-108250000D03*
X117500000Y-89250000D03*
X117500000Y-93250000D03*
X117500000Y-74250000D03*
X117500000Y-78250000D03*
X117500000Y-59250000D03*
X117500000Y-63250000D03*
X72500000Y-156750000D03*
X72500000Y-160750000D03*
X72500000Y-141750000D03*
X72500000Y-145750000D03*
X72500000Y-126750000D03*
X72500000Y-130750000D03*
X72500000Y-111750000D03*
X72500000Y-115750000D03*
X72500000Y-96750000D03*
X72500000Y-100750000D03*
X72500000Y-81750000D03*
X72500000Y-85750000D03*
X72500000Y-66750000D03*
X72500000Y-70750000D03*
X162500000Y-156750000D03*
X162500000Y-160750000D03*
X162500000Y-141750000D03*
X162500000Y-145750000D03*
X162500000Y-126750000D03*
X162500000Y-130750000D03*
X162500000Y-111750000D03*
X162500000Y-115750000D03*
X162500000Y-96750000D03*
X162500000Y-100750000D03*
X162500000Y-81750000D03*
X162500000Y-85750000D03*
X162500000Y-66750000D03*
X162500000Y-70750000D03*
X132500000Y-149250000D03*
X132500000Y-153250000D03*
X132500000Y-134250000D03*
X132500000Y-138250000D03*
X132500000Y-119250000D03*
X132500000Y-123250000D03*
X132500000Y-104250000D03*
X132500000Y-108250000D03*
X132500000Y-89250000D03*
X132500000Y-93250000D03*
X132500000Y-74250000D03*
X132500000Y-78250000D03*
X132500000Y-59250000D03*
X132500000Y-63250000D03*
X117500000Y-156750000D03*
X117500000Y-160750000D03*
X117500000Y-141750000D03*
X117500000Y-145750000D03*
X117500000Y-126750000D03*
X117500000Y-130750000D03*
X117500000Y-111750000D03*
X117500000Y-115750000D03*
X117500000Y-96750000D03*
X117500000Y-100750000D03*
X117500000Y-81750000D03*
X117500000Y-85750000D03*
X117500000Y-66750000D03*
X117500000Y-70750000D03*
X87500000Y-156750000D03*
X87500000Y-160750000D03*
X87500000Y-141750000D03*
X87500000Y-145750000D03*
X87500000Y-126750000D03*
X87500000Y-130750000D03*
X87500000Y-111750000D03*
X87500000Y-115750000D03*
X87500000Y-96750000D03*
X87500000Y-100750000D03*
X87500000Y-81750000D03*
X87500000Y-85750000D03*
X87500000Y-66750000D03*
X87500000Y-70750000D03*
X57500000Y-153250000D03*
X57500000Y-149250000D03*
X57500000Y-138250000D03*
X57500000Y-134250000D03*
X57500000Y-123250000D03*
X57500000Y-119250000D03*
X57500000Y-108250000D03*
X57500000Y-104250000D03*
X57500000Y-93250000D03*
X57500000Y-89250000D03*
X57500000Y-78250000D03*
X57500000Y-74250000D03*
X57500000Y-63250000D03*
X57500000Y-59250000D03*
X57500000Y-160750000D03*
X57500000Y-156750000D03*
X57500000Y-145750000D03*
X57500000Y-141750000D03*
X57500000Y-130750000D03*
X57500000Y-126750000D03*
X57500000Y-115750000D03*
X57500000Y-111750000D03*
X57500000Y-100750000D03*
X57500000Y-96750000D03*
X57500000Y-85750000D03*
X57500000Y-81750000D03*
X57500000Y-70750000D03*
X57500000Y-66750000D03*
X162500000Y-55750000D03*
X162500000Y-51750000D03*
X147500000Y-55750000D03*
X147500000Y-51750000D03*
X132500000Y-55750000D03*
X132500000Y-51750000D03*
X117500000Y-55750000D03*
X117500000Y-51750000D03*
X102500000Y-55750000D03*
X102500000Y-51750000D03*
X87500000Y-55750000D03*
X87500000Y-51750000D03*
X72500000Y-55750000D03*
X72500000Y-51750000D03*
X162500000Y-48250000D03*
X162500000Y-44250000D03*
X147500000Y-48250000D03*
X147500000Y-44250000D03*
X132500000Y-48250000D03*
X132500000Y-44250000D03*
X117500000Y-48250000D03*
X117500000Y-44250000D03*
X102500000Y-48250000D03*
X102500000Y-44250000D03*
X87500000Y-48250000D03*
X87500000Y-44250000D03*
X72500000Y-48250000D03*
X72500000Y-44250000D03*
X57500000Y-51750000D03*
X57500000Y-55750000D03*
X57500000Y-44250000D03*
X57500000Y-48250000D03*
M02*
